<svg xmlns="http://www.w3.org/2000/svg" fill="none" viewBox="0 0 18 18"><path fill="#fff" d="M9 4.5a4.5 4.5 0 00-4 6.8 5 5 0 001.7 1.6 4.6 4.6 0 004.5 0A4.5 4.5 0 009 4.5zm0 7.4a2.8 2.8 0 01-3-3c0-.7.4-1.4 1-2 .5-.6 1.2-.8 2-.8s1.5.2 2 .8c.6.6 1 1.3 1 2 0 .9-.4 1.6-1 2.2-.5.5-1.2.8-2 .8zm5.7-7.6c0 .3-.1.5-.3.7-.2.2-.4.4-.7.4a1 1 0 01-.8-.4 1 1 0 01-.3-.7c0-.3.1-.5.3-.7.3-.3.5-.4.8-.4.3 0 .5.1.7.4.2.2.3.4.3.7zm3 1a8 8 0 00-.3-1.9c-.3-.7-.6-1.2-1.1-1.7-.5-.5-1-.8-1.7-1A58.1 58.1 0 003.4.6 4.6 4.6 0 00.6 3.3a8 8 0 00-.3 2 116.1 116.1 0 00.3 9.2c.3.6.6 1.2 1.1 1.7.5.5 1 .8 1.7 1a60.2 60.2 0 0011.2 0 4.5 4.5 0 002.8-2.7l.3-2a60.2 60.2 0 000-7.2zm-1.9 8.8a3 3 0 01-1.6 1.7 55.2 55.2 0 01-4.5.4H8.3a56.9 56.9 0 01-4.6-.4 3 3 0 01-1.6-1.7 57 57 0 01-.4-4.5V8.4a57 57 0 01.4-4.6c.3-.8.8-1.3 1.6-1.7L6 1.8H9.6a57 57 0 014.6.3c.8.4 1.3 1 1.6 1.7a55.2 55.2 0 01.4 4.5v1.3a56.9 56.9 0 01-.4 4.5z"/></svg>