<svg xmlns="http://www.w3.org/2000/svg" fill="none" viewBox="0 0 150 150"><path fill="#FFD600" d="M146.34 69.08c-1.4 0-6.75 1.97-9.57 3.1-.28-1.13-1.4-1.97-2.81-1.97-1.4 0-2.82.84-2.82 1.97l-5.34-.85a51.03 51.03 0 00-12.38-29.88l3.09-4.51c.84.56 2.53.56 3.38-.57 1.12-1.13 1.4-2.54.56-3.38 2.81-1.13 8.16-3.38 9-4.51 1.13-1.41.29-4.23-1.68-6.49-2.25-1.97-5.07-2.82-6.47-1.69-1.13.85-3.38 6.2-4.5 9.02-.85-.56-2.54-.28-3.38.57-1.13 1.13-1.41 2.53-.57 3.38l-4.5 3.1a51.6 51.6 0 00-29.83-12.4l-.85-5.36c1.13-.28 1.97-1.41 1.97-2.82s-.84-2.54-1.97-2.82c1.13-2.82 3.1-8.18 3.1-9.59C80.49 1.41 77.96 0 74.86 0s-5.63 1.41-5.91 3.38c0 1.41 1.97 6.77 3.1 9.59-1.13.28-1.97 1.41-1.97 2.82 0 1.4.84 2.82 1.97 2.82l-.85 5.36a50.84 50.84 0 00-29.83 12.4l-4.5-3.1c.56-.85.56-2.54-.57-3.38-1.12-1.13-2.53-1.41-3.37-.57-1.13-2.82-3.38-7.9-4.5-9.02-1.41-1.13-4.23-.28-6.2 1.97-2.25 1.98-3.1 4.8-1.97 6.49.85 1.13 6.2 3.38 9 4.51-.55.85-.27 2.54.57 3.38 1.13 1.13 2.53 1.41 3.38.57l3.1 4.5a51.8 51.8 0 00-12.39 29.9l-5.35.84c-.28-1.13-1.4-1.97-2.81-1.97-1.4 0-2.53.84-2.81 1.97-2.82-1.13-8.17-3.1-9.57-3.1C1.4 69.64 0 72.18 0 75.28s1.4 5.64 3.38 5.92c1.4 0 6.75-1.97 9.57-3.1.28 1.13 1.4 1.98 2.81 1.98 1.4 0 2.81-.85 2.81-1.98l5.35.85a51.03 51.03 0 0012.38 29.88l-2.81 4.23c-.84-.56-2.53-.56-3.38.57-1.12 1.13-1.4 2.54-.56 3.38-2.81 1.13-7.88 3.38-9 4.51-1.13 1.41-.29 4.23 1.68 6.49 2.25 2.25 5.07 3.1 6.48 1.69 1.12-.85 3.37-6.2 4.5-9.02.84.56 2.53.28 3.38-.57 1.12-1.13 1.4-2.53.56-3.38l4.5-3.1a51.6 51.6 0 0029.83 12.4l.85 5.36c-1.13.28-1.97 1.41-1.97 2.82s.84 2.54 1.97 2.82c-1.13 2.82-3.1 8.18-3.1 9.59.28 1.97 2.81 3.38 5.91 3.38s5.63-1.41 5.91-3.38c0-1.41-1.97-6.77-3.1-9.59 1.13-.28 1.97-1.41 1.97-2.82 0-1.4-.84-2.82-1.97-2.82l.85-5.36a50.83 50.83 0 0029.83-12.4l4.5 3.1c-.56.84-.56 2.54.57 3.38 1.12 1.13 2.53 1.41 3.37.57 1.13 2.82 3.38 8.17 4.5 9.02 1.41 1.13 4.23.28 6.48-1.7 2.25-2.25 3.1-5.07 1.69-6.48-.85-1.13-6.2-3.38-9-4.5.56-.85.27-2.55-.57-3.4-1.13-1.12-2.53-1.4-3.38-.56l-3.1-4.5a51.8 51.8 0 0012.39-29.9l5.35-.84c.28 1.13 1.4 1.97 2.81 1.97 1.4 0 2.53-.84 2.81-1.97 2.82 1.13 8.17 3.1 9.57 3.1C148.6 80.64 150 78.1 150 75c-.56-2.82-1.97-5.64-3.66-5.92zm-115.38 7.9A1.93 1.93 0 0128.99 75c0-1.13.84-1.97 1.97-1.97 1.12 0 1.97.84 1.97 1.97s-.85 1.97-1.97 1.97zm73.45-34.4c.84-.85 1.97-.85 2.81 0 .85.84.85 1.97 0 2.81-.84.85-1.97.85-2.81 0a2.56 2.56 0 010-2.81zM74.86 29.32c1.13 0 1.97.85 1.97 1.98 0 1.12-.84 1.97-1.97 1.97a1.93 1.93 0 01-1.97-1.97c0-1.13.84-1.98 1.97-1.98zM42.5 42.58c.84-.85 1.97-.85 2.81 0 .84.84.84 1.97 0 2.81-.84.85-1.97.85-2.81 0a2.57 2.57 0 010-2.81zm5.06 8.17l2.25 2.26c.57.56 1.13.56 1.7.28l3.09 3.1c-.85 1.97 0 5.08 2.53 7.61 2.81 2.82 6.75 3.67 8.44 1.98a12.38 12.38 0 00-3.66 8.74v-.85H50.94c-.28 0-.56-.28-.56-.84 0-.57.28-.85.56-.85h11.54v-.28c0-.85-.85-1.7-1.7-1.7H49.82c-.56 0-1.97 1.7-2.81 3.1h-3.38c-.28-.56-.84-1.12-1.4-1.12h-3.66c.56-7.9 3.65-15.5 9-21.43zm-2.25 56.67c-.84.85-1.97.85-2.81 0-.85-.84-.85-1.97 0-2.81.84-.85 1.97-.85 2.81 0 .84.84.84 1.97 0 2.81zm2.25-8.17a37 37 0 01-9.29-22.28h3.66c.57 0 1.41-.56 1.41-1.12h3.1c.84 1.4 2.25 3.38 2.81 3.38h10.98c.84 0 1.68-.56 1.68-1.41v-.56H50.94c-.28 0-.56-.29-.56-.85s.28-.85.56-.85h11.54v-.84c0 3.38 1.4 6.48 3.66 8.74-1.7-1.7-5.63-.85-8.45 1.97-2.53 2.54-3.37 5.64-2.53 7.62l-3.1 3.1c-.56-.29-1.4-.29-1.68.28l-2.82 2.82zm27.3 21.7a1.93 1.93 0 01-1.97-1.97c0-1.12.84-1.97 1.97-1.97s1.97.85 1.97 1.97c0 1.13-.84 1.98-1.97 1.98zm32.36-13.53c-.84.85-1.97.85-2.81 0-.84-.84-.84-1.97 0-2.81.84-.85 1.97-.85 2.81 0 .85.84.85 1.97 0 2.81zm-5.06-8.17l-2.25-2.26c-.57-.56-1.13-.56-1.7-.28l-3.09-3.1c.85-1.97 0-5.08-2.53-7.61-2.82-2.82-6.76-3.67-8.44-1.98-1.7 1.7-.85 5.64 1.97 8.46 2.53 2.54 5.62 3.38 7.6 2.54l3.1 3.1c-.3.56-.3 1.41.27 1.7l2.25 2.25a36.08 36.08 0 01-21.95 9.3v-3.66c0-.57-.56-1.41-1.12-1.41v-3.39c1.12-.84 3.1-2.25 3.1-2.82v-11c0-.84-.85-1.68-1.7-1.68h-.28v11.56c0 .28-.28.56-.84.56-.56 0-.85-.28-.85-.56V87.69h-1.68v11.28c0 .28-.29.56-.85.56s-.84-.28-.84-.56V87.69h-.57c-.84 0-1.4.84-1.4 1.69v11c0 .56 1.97 1.97 3.37 2.81v3.1c-.56.29-1.12.85-1.12 1.42v3.66a36.87 36.87 0 01-22.23-9.3l2.25-2.26c.56-.56.56-1.13.28-1.69l3.1-3.1c1.96.84 5.06 0 7.6-2.54 2.8-2.82 3.65-6.77 1.96-8.46a12.34 12.34 0 0021.1-8.74 12.32 12.32 0 00-21.1-8.74c1.7-1.69.85-5.64-1.97-8.46-2.53-2.53-5.63-3.38-7.6-2.53l-3.1-3.1c.29-.57.29-1.42-.27-1.7l-2.25-2.25a36.86 36.86 0 0122.23-9.3v3.66c0 .56.56 1.4 1.12 1.4v3.1c-1.4.85-3.37 2.26-3.37 2.83v11c0 .84.56 1.69 1.4 1.69h.57V51.03c0-.28.28-.56.84-.56.56 0 .84.28.84.56V62.6h1.69V51.03c0-.28.28-.56.85-.56.56 0 .84.28.84.56V62.6h.28c.85 0 1.7-.84 1.7-1.69v-11c0-.56-1.7-1.97-3.1-2.81V43.7c.56-.28 1.12-.84 1.12-1.4v-3.67a37.5 37.5 0 0121.95 9.02l-2.25 2.26c-.56.56-.56 1.12-.28 1.69l-3.1 3.1c-1.97-.85-5.06 0-7.6 2.54-2.8 2.82-3.65 6.76-1.96 8.46 1.68 1.69 5.62.84 8.44-1.98 2.53-2.54 3.38-5.64 2.53-7.61l3.1-3.1c.56.28 1.4.28 1.69-.28l2.25-2.26a36.22 36.22 0 019.28 22h-3.65c-.57 0-1.41.56-1.41 1.12H103c-.84-1.13-2.25-3.1-2.81-3.1H89.2c-.84 0-1.69.84-1.69 1.7v.27h11.26c.28 0 .56.28.56.85 0 .56-.28.84-.56.84H87.52v1.41h11.26c.28 0 .56.29.56.85s-.28.85-.56.85H87.52v.56c0 .85.85 1.4 1.7 1.4h10.97c.56 0 1.97-1.96 2.81-3.37h3.1c.28.56.84 1.12 1.4 1.12h3.66a34.5 34.5 0 01-9 22.28zM66.98 75a7.87 7.87 0 1115.76 0 7.87 7.87 0 11-15.76 0zm51.78 1.97A1.93 1.93 0 01116.8 75c0-1.13.85-1.97 1.97-1.97 1.13 0 1.97.84 1.97 1.97s-.84 1.97-1.97 1.97z"/></svg>